<?xml version="1.0" encoding="UTF-8" standalone="no"?>
<!-- Created with Inkscape (http://www.inkscape.org/) -->

<svg
   xmlns:dc="http://purl.org/dc/elements/1.1/"
   xmlns:cc="http://creativecommons.org/ns#"
   xmlns:rdf="http://www.w3.org/1999/02/22-rdf-syntax-ns#"
   xmlns:svg="http://www.w3.org/2000/svg"
   xmlns="http://www.w3.org/2000/svg"
   xmlns:sodipodi="http://sodipodi.sourceforge.net/DTD/sodipodi-0.dtd"
   xmlns:inkscape="http://www.inkscape.org/namespaces/inkscape"
   version="1.1"
   id="svg4534"
   width="257"
   height="258"
   viewBox="0 0 257 258"
   sodipodi:docname="happy.svg"
   inkscape:version="0.92.4 (5da689c313, 2019-01-14)">
  <metadata
     id="metadata4540">
    <rdf:RDF>
      <cc:Work
         rdf:about="">
        <dc:format>image/svg+xml</dc:format>
        <dc:type
           rdf:resource="http://purl.org/dc/dcmitype/StillImage" />
        <dc:title></dc:title>
      </cc:Work>
    </rdf:RDF>
  </metadata>
  <defs
     id="defs4538" />
  <sodipodi:namedview
     pagecolor="#ffffff"
     bordercolor="#666666"
     borderopacity="1"
     objecttolerance="10"
     gridtolerance="10"
     guidetolerance="10"
     inkscape:pageopacity="0"
     inkscape:pageshadow="2"
     inkscape:window-width="1920"
     inkscape:window-height="1001"
     id="namedview4536"
     showgrid="false"
     inkscape:zoom="0.91472868"
     inkscape:cx="128.5"
     inkscape:cy="129"
     inkscape:window-x="-9"
     inkscape:window-y="-9"
     inkscape:window-maximized="1"
     inkscape:current-layer="svg4534" />
  <path
     style="fill:#fafaf6"
     d="M 109,255.37885 C 80.68439,250.16911 60.228313,239.85792 40.4823,220.8415 24.27849,205.23641 14.295611,189.78402 7.6365989,170 5.6928181,164.225 3.589113,156.35 2.9616985,152.5 c -0.6274144,-3.85 -1.5504661,-7.78139 -2.05122599,-8.73643 -1.1851986,-2.26038 -1.1851986,-27.26676 0,-29.52714 C 1.4112324,113.28139 2.3366149,109.35 2.9668782,105.5 4.3963226,96.768155 9.0786036,82.868198 13.956116,72.877025 19.757243,60.993908 26.63331,51.334963 36.704086,40.922509 55.678743,21.304088 77.37426,9.2408703 103.15708,3.9730777 115.49084,1.4531181 138.89348,1.2629178 151.12516,3.5832267 176.28559,8.3560801 199.28944,20.442159 217.58343,38.5 c 14.96002,14.766909 25.80159,32.459532 32.2545,52.636949 4.24611,13.277041 5.14696,19.904021 5.14696,37.863051 0,17.40622 -0.88681,24.3858 -4.61038,36.28571 -12.10019,38.67021 -38.37388,67.52947 -74.80956,82.17152 -16.91134,6.796 -21.919,7.71241 -44.06495,8.06404 -11,0.17466 -21.125,0.11057 -22.5,-0.14242 z m 29.14405,-21.419 c 16.51476,-1.65875 35.29957,-8.11238 47.79793,-16.42128 24.02351,-15.9708 39.87921,-39.99868 45.55531,-69.03498 2.13175,-10.90503 1.61812,-34.35476 -0.96383,-44.00359 C 224.98235,83.755281 216.21893,68.422078 201.83713,54.290536 182.17798,34.97346 160.60132,25.512965 133.46082,24.310273 96.830812,22.687068 65.487602,37.210388 43.333516,66.072036 28.778889,85.033347 20.491241,114.0556 23.012852,137.23234 c 1.378581,12.67087 2.231059,16.5893 5.934269,27.27697 8.986622,25.93588 29.47933,48.53187 54.430988,60.01753 13.132112,6.04493 24.937531,8.89934 42.765941,10.34028 0.90422,0.0731 6.30422,-0.33519 12,-0.90727 z M 116.84022,197.9926 C 108.26283,196.63147 96.051654,191.51827 88.185094,185.9938 79.15292,179.65076 76,175.5827 76,170.27197 c 0,-3.44398 0.589908,-4.57219 4.002881,-7.65561 5.984066,-5.40624 9.047101,-4.94439 17.945182,2.70583 1.896435,1.63048 6.846437,4.5875 10.999997,6.57116 7.39785,3.53306 7.79679,3.60586 19.55194,3.5679 14.49396,-0.0468 18.95528,-1.57173 30.84343,-10.54257 4.31388,-3.25527 8.72373,-5.91868 9.79966,-5.91868 5.09985,0 11.84398,6.55334 11.85317,11.51787 0.0139,7.51261 -19.26929,21.75958 -35.33494,26.10643 -6.67393,1.80575 -21.59917,2.51433 -28.8211,1.3683 z M 79.5,109.83932 c -4.793917,-2.63634 -5.454286,-4.68726 -5.477764,-17.012397 -0.02209,-11.596327 -0.0029,-11.692407 2.917668,-14.612981 5.575151,-5.57515 12.343654,-4.895611 16.772766,1.683941 C 95.643721,82.766505 96,84.601712 96,91.680002 96,96.714694 95.424783,101.44093 94.560176,103.51022 92.093473,109.41387 84.51657,112.59809 79.5,109.83932 Z M 164.4,107.6 161,104.2 V 93.134796 c 0,-10.902592 0.0447,-11.116118 3.04191,-14.52975 3.77387,-4.298202 7.69979,-5.295983 12.28212,-3.121527 5.66871,2.68998 6.92677,6.326911 6.52391,18.860002 -0.34668,10.785139 -0.35977,10.834889 -3.61372,13.740409 -4.78297,4.2708 -10.2581,4.09219 -14.83422,-0.48393 z"
     id="path4544"
     inkscape:connector-curvature="0" />
</svg>
