<?xml version="1.0" encoding="UTF-8" standalone="no"?>
<!-- Created with Inkscape (http://www.inkscape.org/) -->

<svg
   xmlns:dc="http://purl.org/dc/elements/1.1/"
   xmlns:cc="http://creativecommons.org/ns#"
   xmlns:rdf="http://www.w3.org/1999/02/22-rdf-syntax-ns#"
   xmlns:svg="http://www.w3.org/2000/svg"
   xmlns="http://www.w3.org/2000/svg"
   xmlns:sodipodi="http://sodipodi.sourceforge.net/DTD/sodipodi-0.dtd"
   xmlns:inkscape="http://www.inkscape.org/namespaces/inkscape"
   version="1.1"
   id="svg4558"
   width="257"
   height="258"
   viewBox="0 0 257 258"
   sodipodi:docname="meh.svg"
   inkscape:version="0.92.4 (5da689c313, 2019-01-14)">
  <metadata
     id="metadata4564">
    <rdf:RDF>
      <cc:Work
         rdf:about="">
        <dc:format>image/svg+xml</dc:format>
        <dc:type
           rdf:resource="http://purl.org/dc/dcmitype/StillImage" />
        <dc:title></dc:title>
      </cc:Work>
    </rdf:RDF>
  </metadata>
  <defs
     id="defs4562" />
  <sodipodi:namedview
     pagecolor="#ffffff"
     bordercolor="#666666"
     borderopacity="1"
     objecttolerance="10"
     gridtolerance="10"
     guidetolerance="10"
     inkscape:pageopacity="0"
     inkscape:pageshadow="2"
     inkscape:window-width="1920"
     inkscape:window-height="1001"
     id="namedview4560"
     showgrid="false"
     inkscape:zoom="0.91472868"
     inkscape:cx="128.5"
     inkscape:cy="129"
     inkscape:window-x="-9"
     inkscape:window-y="-9"
     inkscape:window-maximized="1"
     inkscape:current-layer="svg4558" />
  <path
     style="fill:#fafaf6"
     d="M 104.98789,253.45938 C 96.505954,251.92251 79.145075,246.11753 71.552695,242.27961 43.340067,228.01824 18.770647,200.2353 8.5176681,171 3.5577195,156.85723 2.0327229,146.97371 2.0156676,128.86047 1.9984458,110.57037 3.415683,100.40067 7.7099331,88 27.348298,31.289525 81.459302,-3.6349026 141,1.9716697 196.63749,7.210701 242.01478,48.019871 253.59508,103.23182 c 2.43579,11.61322 2.41057,39.04096 -0.0467,50.76518 -10.44761,49.8486 -51.41629,89.93361 -101.6567,99.46406 -10.11092,1.91801 -36.31432,1.91707 -46.90382,-0.002 z M 149,231.33844 c 37.96798,-7.54803 67.48563,-33.35153 79.319,-69.33844 4.31896,-13.13454 5.14585,-18.75823 5.07278,-34.5 -0.0601,-12.94065 -0.43547,-16.37173 -2.73436,-24.99149 C 222.00339,70.060021 199.78691,44.331902 169.5,31.684275 141.78706,20.111521 113.683,20.372654 85.681459,32.463088 55.044813,45.6913 34.661255,70.433329 25.9224,105 c -2.671297,10.56635 -3.315989,20.81946 -2.074964,33 3.787641,37.17533 25.216314,68.14341 58.652564,84.76295 11.383557,5.65821 23.48963,8.91424 39.5,10.62385 5.5185,0.58927 18.80109,-0.41841 27,-2.04836 z M 93.90441,181.33546 c -3.680943,-2.28509 -5.143818,-5.0717 -5.080256,-9.67731 0.04264,-3.08946 0.755349,-4.69948 3.133493,-7.07859 L 95.03595,161.5 l 32.45582,-0.28923 c 35.76198,-0.31869 36.93718,-0.14953 39.9913,5.7565 1.91745,3.70793 1.91745,6.35753 0,10.06546 -2.98741,5.77702 -4.25949,5.96988 -39.18341,5.94066 -27.47105,-0.023 -32.152975,-0.24594 -34.39525,-1.63793 z M 79.216795,108.4393 C 75.197854,105.62432 74,101.77717 74,91.684519 c 0,-8.203613 0.286435,-9.785931 2.226512,-12.29966 3.444404,-4.462864 4.948114,-5.318748 9.404831,-5.353056 3.349457,-0.02578 4.721569,0.571896 7.25,3.158035 C 95.98619,80.365551 96,80.427836 96,91.255579 c 0,11.246151 -0.711416,14.011011 -4.36704,16.972181 -2.682121,2.17261 -9.451686,2.28794 -12.416165,0.21154 z M 164.4,106.6 161,103.2 V 91.718657 80.237315 l 3.08776,-3.018857 c 1.69827,-1.660371 4.28565,-3.247848 5.74974,-3.527727 3.57124,-0.682685 8.32766,1.432482 11.07483,4.924943 2.08405,2.649435 2.22403,3.686244 1.9179,14.205472 L 182.5,104.16858 l -3.26578,2.91571 C 174.45111,111.35469 168.97594,111.17594 164.4,106.6 Z"
     id="path4568"
     inkscape:connector-curvature="0" />
</svg>
