<?xml version="1.0" encoding="UTF-8" standalone="no"?>
<!-- Created with Inkscape (http://www.inkscape.org/) -->

<svg
   xmlns:dc="http://purl.org/dc/elements/1.1/"
   xmlns:cc="http://creativecommons.org/ns#"
   xmlns:rdf="http://www.w3.org/1999/02/22-rdf-syntax-ns#"
   xmlns:svg="http://www.w3.org/2000/svg"
   xmlns="http://www.w3.org/2000/svg"
   xmlns:sodipodi="http://sodipodi.sourceforge.net/DTD/sodipodi-0.dtd"
   xmlns:inkscape="http://www.inkscape.org/namespaces/inkscape"
   version="1.1"
   id="svg4570"
   width="257"
   height="258"
   viewBox="0 0 257 258"
   sodipodi:docname="sad.svg"
   inkscape:version="0.92.4 (5da689c313, 2019-01-14)">
  <metadata
     id="metadata4576">
    <rdf:RDF>
      <cc:Work
         rdf:about="">
        <dc:format>image/svg+xml</dc:format>
        <dc:type
           rdf:resource="http://purl.org/dc/dcmitype/StillImage" />
        <dc:title></dc:title>
      </cc:Work>
    </rdf:RDF>
  </metadata>
  <defs
     id="defs4574" />
  <sodipodi:namedview
     pagecolor="#ffffff"
     bordercolor="#666666"
     borderopacity="1"
     objecttolerance="10"
     gridtolerance="10"
     guidetolerance="10"
     inkscape:pageopacity="0"
     inkscape:pageshadow="2"
     inkscape:window-width="695"
     inkscape:window-height="480"
     id="namedview4572"
     showgrid="false"
     inkscape:zoom="0.91472868"
     inkscape:cx="128.5"
     inkscape:cy="129"
     inkscape:window-x="0"
     inkscape:window-y="0"
     inkscape:window-maximized="0"
     inkscape:current-layer="svg4570" />
  <path
     style="fill:#fafaf6"
     d="M 108.5,254.41024 C 82.420559,250.36488 56.578335,236.65204 37.187178,216.56902 13.566172,192.10524 2,163.15671 2,128.50039 2,105.80051 5.1770516,91.844442 14.975947,71.5 31.164377,37.889624 64.057482,11.981834 101.5,3.3505504 c 11.47924,-2.6462054 42.59183,-2.61104946 54,0.061018 23.24546,5.4446432 43.15255,16.3537286 60.42198,33.1112426 20.58421,19.974034 31.30726,40.130855 38.55651,72.477189 2.5161,11.22693 1.74003,32.12763 -1.70804,46 -6.86029,27.60051 -18.32004,47.83818 -37.38478,66.02079 -28.38192,27.06865 -67.9498,39.42906 -106.88567,33.38945 z m 36,-21.97056 c 19.96548,-3.44721 36.53565,-10.7999 50.58761,-22.44726 C 217.55496,191.36972 229.39176,168.7611 233.0412,137.5 235.25492,118.53729 230.01641,94.120913 219.96524,76.553734 199.73746,41.200141 164.32359,21.648189 123.5,23.295405 97.093552,24.360895 73.278595,34.807119 54.542857,53.542857 41.152395,66.933319 33.298321,80.587962 27.522623,100.51869 18.882714,130.33321 25.598565,165.79781 44.767762,191.58564 67.805636,222.5779 107.48258,238.83106 144.5,232.43968 Z M 80.565779,177.92361 c -4.262788,-3.74278 -5.421186,-8.36876 -3.180613,-12.70154 3.909497,-7.56014 20.996577,-18.37862 34.614834,-21.91598 8.46498,-2.19879 24.33562,-2.18534 33,0.028 9.90122,2.52925 22.41934,9.24787 29.13213,15.63554 5.56676,5.29716 5.86787,5.83001 5.86787,10.38396 0,3.95272 -0.50707,5.30736 -2.87187,7.67215 -5.46621,5.46621 -10.01624,5.20731 -17.48954,-0.99516 -2.67378,-2.2191 -7.84878,-5.4804 -11.5,-7.24733 -5.98637,-2.89697 -7.71931,-3.25017 -17.63859,-3.59503 -9.77484,-0.33984 -11.80326,-0.10143 -18.212,2.14051 -3.96661,1.38761 -9.27875,4.01882 -11.80476,5.84712 -2.526011,1.8283 -5.984656,4.33668 -7.685877,5.57418 -4.294009,3.12354 -8.019536,2.87184 -12.231584,-0.82639 z M 77.4,106.6 74,103.2 V 92.085315 80.97063 l 3.402333,-3.712588 C 80.291697,74.1052 81.437195,73.545455 85,73.545455 c 3.58099,0 4.70588,0.557101 7.681824,3.804417 L 96.168312,81.15429 95.834156,92.661437 95.5,104.16858 92.234223,107.08429 C 87.451112,111.35469 81.975939,111.17594 77.4,106.6 Z m 87,0 -3.4,-3.4 V 92.504292 c 0,-12.198686 1.20672,-15.425441 6.75294,-18.057294 4.1744,-1.980884 8.22844,-1.192893 11.69439,2.273061 3.43191,3.43191 3.80597,5.337582 3.398,17.311491 -0.34091,10.00598 -0.38714,10.17306 -3.61111,13.05209 -4.78286,4.27113 -10.25795,4.09263 -14.83422,-0.48364 z"
     id="path4580"
     inkscape:connector-curvature="0" />
</svg>
